<svg width="46" height="46" viewBox="0 0 46 46" fill="none" xmlns="http://www.w3.org/2000/svg">
<circle cx="23" cy="23" r="23" fill="#F0FEF9"/>
<rect x="8" y="13" width="30" height="19" rx="2" fill="#5AA682"/>
<path d="M11.8511 17.0637C11.334 16.8698 10.7576 17.1318 10.5637 17.6489C10.3698 18.166 10.6318 18.7424 11.1489 18.9363L11.8511 17.0637ZM23.5 22.5L23.1489 23.4363C23.3848 23.5248 23.6454 23.5209 23.8786 23.4255L23.5 22.5ZM34.8786 18.9255C35.3898 18.7164 35.6347 18.1325 35.4255 17.6214C35.2164 17.1102 34.6325 16.8653 34.1214 17.0745L34.8786 18.9255ZM11.1489 18.9363L23.1489 23.4363L23.8511 21.5637L11.8511 17.0637L11.1489 18.9363ZM23.8786 23.4255L34.8786 18.9255L34.1214 17.0745L23.1214 21.5745L23.8786 23.4255Z" fill="#F0FEF9"/>
</svg>
